<?xml version="1.0" standalone="no"?>
<!DOCTYPE svg PUBLIC "-//W3C//DTD SVG 20010904//EN"
 "http://www.w3.org/TR/2001/REC-SVG-20010904/DTD/svg10.dtd">
<svg version="1.0" xmlns="http://www.w3.org/2000/svg"
 width="512.000000pt" height="512.000000pt" viewBox="0 0 512.000000 512.000000"
 preserveAspectRatio="xMidYMid meet">

<g transform="translate(0.000000,512.000000) scale(0.100000,-0.100000)"
fill="#000000" stroke="none">
<path d="M1921 4766 c-30 -16 -85 -103 -108 -170 -12 -36 -17 -80 -17 -146 1
-116 22 -182 89 -275 57 -81 75 -131 75 -209 -1 -77 -14 -114 -72 -198 -108
-157 -125 -322 -50 -483 59 -124 122 -156 184 -95 36 37 34 62 -11 136 -71
114 -64 222 25 355 67 101 94 184 94 289 0 103 -27 188 -88 276 -57 82 -68
107 -77 167 -10 63 10 145 50 208 43 65 44 92 6 130 -32 31 -62 36 -100 15z"/>
<path d="M2523 4770 c-11 -5 -35 -29 -52 -53 -49 -72 -73 -143 -78 -238 -7
-114 17 -196 90 -306 64 -96 82 -152 74 -231 -5 -64 -30 -119 -82 -187 -99
-131 -112 -351 -28 -495 57 -98 111 -123 167 -79 37 29 34 73 -10 153 -62 113
-57 227 16 328 142 200 148 388 16 587 -63 96 -81 150 -73 229 4 55 44 153 67
167 11 7 14 64 4 90 -7 17 -55 45 -76 44 -7 0 -23 -4 -35 -9z"/>
<path d="M3120 4767 c-36 -18 -86 -98 -110 -174 -43 -141 -19 -294 68 -419 26
-38 53 -81 59 -95 36 -84 22 -200 -33 -276 -19 -27 -51 -82 -72 -123 -37 -74
-37 -76 -37 -196 0 -119 0 -121 38 -196 60 -122 126 -159 182 -103 34 33 32
79 -5 134 -36 53 -50 99 -50 166 0 75 15 114 75 205 82 123 108 230 86 356
-14 79 -47 154 -96 215 -50 63 -68 126 -63 215 4 63 10 82 41 133 46 74 48
110 6 145 -34 29 -52 32 -89 13z"/>
<path d="M2305 2980 c-580 -35 -1069 -178 -1445 -421 -414 -268 -708 -660
-822 -1098 -27 -103 -31 -132 -31 -261 -1 -169 17 -250 82 -381 91 -180 228
-313 414 -399 177 -81 5 -75 2062 -75 1723 0 1834 1 1895 18 342 93 583 348
645 682 70 372 -148 895 -526 1260 -332 321 -744 519 -1289 619 -277 50 -688
74 -985 56z m558 -176 l37 -7 0 -131 c0 -384 -61 -742 -154 -908 -84 -148
-218 -177 -319 -69 -124 133 -190 421 -204 893 l-6 216 29 5 c47 7 575 7 617
1z m-819 -206 c25 -656 131 -986 358 -1109 59 -32 69 -34 158 -34 89 0 99 2
158 34 79 43 138 108 189 208 105 203 151 444 160 842 l6 243 56 -6 c115 -14
463 -93 476 -108 2 -2 -21 -57 -50 -123 -232 -530 -290 -887 -167 -1019 40
-42 118 -76 177 -76 99 0 236 90 356 233 82 99 218 304 314 475 44 78 83 142
86 142 17 0 187 -162 255 -243 279 -332 416 -734 349 -1022 -44 -192 -184
-363 -370 -451 -157 -74 8 -68 -1925 -72 -1159 -2 -1767 1 -1833 8 -176 18
-309 81 -426 200 -156 157 -221 358 -188 582 37 251 150 497 332 723 91 113
276 288 289 274 2 -2 37 -62 76 -134 88 -158 201 -332 286 -441 131 -168 281
-274 388 -274 55 0 126 28 164 63 108 100 98 344 -28 711 -42 122 -126 330
-162 400 -16 31 -17 40 -7 47 20 12 257 69 371 89 164 28 144 49 152 -162z
m-643 -119 c195 -440 270 -800 178 -850 -55 -29 -198 93 -336 287 -101 142
-304 489 -292 497 130 86 376 204 392 188 4 -4 30 -59 58 -122z m2609 25 c176
-91 167 -81 134 -146 -80 -159 -239 -413 -334 -533 -106 -134 -224 -219 -269
-195 -23 12 -41 67 -41 121 0 145 104 481 241 776 l38 83 53 -21 c29 -11 109
-50 178 -85z"/>
<path d="M625 1855 c-68 -68 2 -178 90 -141 62 26 74 89 26 137 -38 37 -82 39
-116 4z"/>
<path d="M450 1595 c-53 -56 -13 -145 65 -145 25 0 40 8 59 31 30 35 32 58 11
98 -25 50 -96 58 -135 16z"/>
<path d="M795 1595 c-54 -53 -16 -145 58 -145 24 0 42 8 61 26 55 55 18 144
-59 144 -25 0 -44 -8 -60 -25z"/>
</g>
</svg>
